<?xml version="1.0" standalone="no"?>
<!DOCTYPE svg PUBLIC "-//W3C//DTD SVG 20010904//EN"
 "http://www.w3.org/TR/2001/REC-SVG-20010904/DTD/svg10.dtd">
<svg version="1.0" xmlns="http://www.w3.org/2000/svg"
 width="576.000000pt" height="576.000000pt" viewBox="0 0 576.000000 576.000000"
 preserveAspectRatio="xMidYMid meet">
<metadata>
Created by potrace 1.14, written by Peter Selinger 2001-2017
</metadata>
<g transform="translate(0.000000,576.000000) scale(0.100000,-0.100000)"
fill="#000000" stroke="none">
<path d="M709 5125 c-2 -1 -44 -5 -94 -8 -130 -8 -169 -19 -279 -76 -86 -44
-201 -155 -248 -237 -18 -33 -32 -61 -31 -64 0 -3 -4 -14 -10 -25 -6 -11 -12
-24 -14 -30 -33 -124 -33 -87 -32 -1800 0 -1841 -4 -1737 63 -1878 41 -87 52
-103 138 -188 44 -43 93 -79 144 -105 42 -21 81 -40 86 -40 4 -1 9 -2 11 -4 1
-1 9 -3 17 -5 8 -2 29 -6 45 -10 17 -4 72 -8 122 -8 51 -1 93 -4 93 -7 0 -3
27 -4 60 -2 33 1 87 3 120 5 33 1 60 0 60 -3 0 -3 27 -4 60 -2 33 1 87 3 120
5 33 1 60 0 60 -3 0 -3 27 -4 60 -2 33 1 87 3 120 5 33 1 60 0 60 -3 0 -5 24
-4 183 3 31 1 57 0 57 -3 0 -3 27 -4 60 -2 33 1 87 3 120 5 33 1 60 0 60 -3 0
-3 27 -4 60 -2 33 1 87 3 120 5 33 1 60 0 60 -3 0 -3 26 -4 57 -3 159 7 183 8
183 3 0 -3 27 -4 60 -2 33 1 87 3 120 5 33 1 60 0 60 -3 0 -5 24 -4 183 3 31
1 57 0 57 -3 0 -3 27 -4 60 -2 33 1 87 3 120 5 33 1 60 0 60 -3 0 -3 27 -4 60
-2 33 1 87 3 120 5 33 1 60 0 60 -3 0 -5 24 -4 183 3 31 1 57 0 57 -3 0 -3 27
-4 60 -2 33 1 87 3 120 5 33 1 60 0 60 -3 0 -3 27 -4 60 -2 33 1 87 3 120 5
33 1 60 -1 60 -4 0 -3 20 -3 45 1 25 4 48 3 51 -2 3 -4 10 -6 15 -2 5 3 34 5
64 4 30 0 61 -1 68 -1 49 -1 167 36 167 52 0 5 6 9 13 9 25 0 76 67 155 205
55 95 66 115 116 198 25 43 46 83 46 88 0 5 5 9 10 9 6 0 10 4 10 9 0 5 27 55
60 111 33 56 60 106 60 111 0 5 4 9 9 9 5 0 11 8 15 18 3 9 13 31 23 47 10 17
47 80 82 140 35 61 74 126 86 145 12 19 25 42 28 50 4 8 16 29 27 45 11 17 23
37 27 45 6 13 104 183 133 230 16 27 130 224 153 265 12 22 24 42 27 45 10 10
41 65 47 83 3 9 9 17 14 17 5 0 9 5 9 11 0 6 21 47 48 92 26 45 52 97 59 115
11 30 11 146 0 182 -24 81 -94 162 -171 199 -50 23 -110 32 -206 31 -30 -1
-62 -1 -70 -1 -8 1 -31 1 -50 0 -19 -1 -42 -1 -50 0 -8 0 -40 0 -70 0 -30 -1
-62 -1 -70 0 -8 1 -31 1 -50 0 -19 -1 -42 -1 -50 0 -8 0 -40 0 -70 0 -30 -1
-62 -1 -70 0 -8 1 -31 1 -50 0 -19 -1 -42 -1 -50 0 -8 0 -40 0 -70 0 -30 -1
-62 -1 -70 0 -8 1 -31 1 -50 0 -19 -1 -42 -1 -50 0 -8 0 -40 0 -70 0 -30 -1
-62 -1 -70 0 -8 1 -31 1 -50 0 -19 -1 -42 -1 -50 0 -8 0 -40 0 -70 0 -30 -1
-62 -1 -70 0 -8 1 -31 1 -50 0 -19 -1 -42 -1 -50 0 -8 0 -40 0 -70 0 -30 -1
-62 -1 -70 0 -8 1 -31 1 -50 0 -19 -1 -42 -1 -50 0 -8 0 -40 0 -70 0 -30 -1
-62 -1 -70 0 -8 1 -31 1 -50 0 -19 -1 -42 -1 -50 0 -8 0 -40 0 -70 0 -30 -1
-62 -1 -70 0 -8 1 -31 1 -50 0 -19 -1 -42 -1 -50 0 -8 0 -40 0 -70 0 -30 -1
-62 -1 -70 0 -8 1 -31 1 -50 0 -19 -1 -42 -1 -50 0 -8 0 -40 0 -70 0 -30 -1
-62 -1 -70 0 -8 1 -31 1 -50 0 -19 -1 -41 -1 -47 0 -7 1 -19 1 -25 2 -7 1 -38
1 -68 0 -30 0 -95 -1 -143 -1 -49 0 -93 -2 -98 -5 -5 -4 -9 -3 -9 2 0 8 -271
8 -302 -1 -10 -2 -18 -1 -18 2 0 8 -274 6 -302 -2 -10 -2 -18 -1 -18 2 0 4
-66 6 -147 5 -266 -4 -314 -9 -366 -33 -83 -39 -116 -79 -225 -270 -26 -47
-140 -241 -152 -260 -20 -32 -125 -215 -129 -225 -2 -5 -7 -12 -10 -15 -3 -3
-12 -15 -18 -27 -7 -13 -19 -33 -25 -45 -7 -13 -17 -26 -21 -29 -5 -3 -7 -8
-6 -10 3 -4 -92 -169 -140 -244 -14 -22 -26 -43 -26 -47 0 -4 -6 -13 -12 -20
-7 -6 -13 -18 -13 -25 0 -7 -3 -13 -8 -13 -4 0 -13 -14 -21 -31 -7 -16 -15
-28 -17 -26 -3 3 -4 63 -3 202 1 141 1 232 0 243 -1 16 -2 38 -2 97 0 28 0 55
0 60 -1 6 -1 53 0 105 0 52 0 103 0 113 0 9 0 42 0 72 1 82 1 174 0 278 0 50
1 115 2 142 1 28 1 56 1 63 -1 6 -1 51 -2 100 0 48 0 134 -1 192 0 58 0 121 1
140 1 19 2 42 1 50 0 8 0 51 0 95 0 44 0 87 0 95 -1 8 -1 29 0 45 1 17 1 37 0
45 0 8 0 60 0 115 1 55 0 107 0 115 -1 8 -1 29 0 45 1 17 1 37 0 45 -4 116 2
188 20 221 23 44 96 80 164 80 11 0 46 0 78 0 31 0 63 0 70 0 6 0 59 0 117 0
58 -1 143 -1 190 -1 47 0 116 -1 153 -1 37 -1 70 1 72 3 3 3 24 2 48 -1 23 -4
61 -4 85 -1 23 4 42 2 42 -2 0 -5 4 -6 10 -3 5 3 38 5 72 5 79 -1 90 -1 158 0
54 0 83 -3 122 -16 11 -3 97 -83 191 -176 189 -187 274 -257 387 -316 78 -41
220 -96 220 -86 0 4 6 2 13 -4 7 -6 26 -13 42 -16 17 -2 30 -5 30 -6 0 -3 51
-8 145 -14 52 -4 103 -8 113 -9 10 -2 40 0 67 3 28 4 50 4 50 1 0 -3 33 -5 72
-3 40 1 111 2 158 2 47 -1 108 0 135 1 28 1 56 1 63 1 6 -1 54 -1 105 -2 50 0
139 0 197 -1 58 0 119 0 135 1 17 1 35 2 40 1 6 0 44 -1 85 -2 41 -1 86 -7
100 -15 60 -32 91 -90 90 -169 0 -22 0 -80 0 -128 0 -48 -2 -92 -5 -97 -3 -5
-1 -11 3 -14 5 -3 7 -17 5 -30 -5 -24 -3 -25 53 -26 102 -2 186 0 195 6 5 3 9
2 9 -3 0 -10 201 -6 212 5 6 6 9 42 8 97 -1 11 -1 72 -1 135 0 63 -2 131 -4
150 -3 31 -6 47 -20 110 -2 8 -4 16 -5 18 -2 1 -3 5 -5 10 -1 4 -8 21 -15 37
-7 17 -14 32 -14 35 -1 3 -16 29 -34 58 -30 50 -118 144 -173 186 -26 20 -163
86 -188 91 -9 2 -16 4 -16 5 0 4 -65 10 -149 15 -49 2 -90 6 -92 8 -2 2 -26 1
-54 -3 -27 -4 -50 -4 -50 -1 0 7 -196 4 -222 -3 -10 -2 -18 -1 -18 2 0 8 -274
6 -302 -2 -10 -2 -18 -1 -18 2 0 5 -206 5 -315 1 -5 -1 -32 -1 -60 0 -27 0
-57 0 -65 0 -41 -3 -166 20 -210 38 -8 4 -17 7 -20 8 -30 8 -114 56 -150 84
-25 20 -112 104 -195 186 -182 182 -221 214 -310 258 -101 49 -206 71 -330 66
-27 -1 -57 -1 -65 0 -8 1 -31 1 -50 0 -19 -1 -42 -1 -50 0 -8 0 -40 0 -70 0
-30 -1 -62 -1 -70 0 -8 1 -31 1 -50 0 -19 -1 -42 -1 -50 0 -8 0 -40 0 -70 0
-30 -1 -62 -1 -70 0 -8 1 -31 1 -50 0 -19 -1 -42 -1 -50 0 -8 0 -40 0 -70 0
-30 -1 -62 -1 -70 0 -8 1 -31 1 -50 0 -19 -1 -42 -1 -50 0 -33 2 -115 0 -118
-4 -2 -2 -14 0 -27 5 -13 5 -25 7 -26 5z"/>
</g>
</svg>
